# This file uses centimeters as units for non-parametric coordinates.

mtllib dragon.mtl
g default
v 0.707107 -3.895952 7.743740
v 0.000000 -3.968773 7.643788
v -0.707107 -3.895952 7.743740
v -1.000000 -3.720148 7.985046
v -0.707107 -3.544343 8.226352
v -0.000000 -3.471523 8.326305
v 0.707107 -3.544343 8.226353
v 1.000000 -3.720148 7.985046
v 0.707107 -0.331950 7.242577
v 0.000000 -0.178143 6.986669
v -0.707107 -0.331950 7.242577
v -1.000000 -0.703270 7.860394
v -0.707107 -1.074591 8.478212
v 0.000000 -1.228397 8.734119
v 0.707107 -1.074591 8.478212
v 1.000000 -0.703270 7.860394
v -0.000000 -3.720148 7.985046
v 0.000000 -0.703270 7.860394
v 0.707107 -0.798491 7.138468
v 1.000000 -1.226433 7.747827
v 0.707107 -1.654378 8.357186
v 0.000000 -1.831638 8.609591
v -0.707107 -1.654378 8.357186
v -1.000000 -1.226433 7.747827
v -0.707107 -0.798491 7.138468
v 0.000000 -0.621229 6.886062
v 0.707107 -1.123126 6.949669
v 1.000000 -1.534220 7.449851
v 0.707107 -1.945314 7.950032
v 0.000000 -2.115595 8.157214
v -0.707107 -1.945314 7.950032
v -1.000000 -1.534220 7.449851
v -0.707107 -1.123126 6.949669
v 0.000000 -0.952846 6.742488
v 0.707107 -2.424084 6.669671
v 1.000000 -2.578130 7.002643
v 0.707107 -2.732175 7.335614
v 0.000000 -2.795983 7.473535
v -0.707107 -2.732175 7.335614
v -1.000000 -2.578130 7.002643
v -0.707107 -2.424084 6.669671
v 0.000000 -2.360276 6.531750
v 0.707107 -3.203172 7.239013
v 1.000000 -3.027367 7.480319
v 0.707107 -2.851563 7.721626
v -0.000000 -2.778743 7.821578
v -0.707107 -2.851563 7.721626
v -1.000000 -3.027367 7.480319
v -0.707107 -3.203172 7.239013
v 0.000000 -3.275992 7.139061
v 0.707107 -3.434099 7.407256
v 1.000000 -3.258294 7.648562
v 0.707107 -3.082490 7.889868
v 0.000000 -3.009670 7.989820
v -0.707107 -3.082490 7.889868
v -1.000000 -3.258294 7.648562
v -0.707107 -3.434099 7.407256
v 0.000000 -3.506919 7.307303
v 0.707107 -3.665025 7.575498
v 1.000000 -3.489221 7.816804
v 0.707107 -3.313417 8.058110
v 0.000000 -3.240596 8.158062
v -0.707107 -3.313417 8.058110
v -1.000000 -3.489221 7.816804
v -0.707107 -3.665025 7.575498
v 0.000000 -3.737846 7.475546
v 1.000000 -1.778144 7.354786
v 0.707107 -2.048917 7.755056
v 0.000000 -2.161075 7.920854
v -0.707107 -2.048917 7.755056
v -1.000000 -1.778144 7.354786
v -0.707107 -1.507371 6.954516
v 0.000000 -1.395214 6.788719
v 0.707107 -1.507371 6.954516
v 1.000000 -2.467651 7.061658
v 0.707107 -2.695139 7.442404
v 0.000000 -2.789368 7.600114
v -0.707107 -2.695139 7.442404
v -1.000000 -2.467651 7.061658
v -0.707107 -2.240163 6.680912
v 0.000000 -2.145934 6.523203
v 0.707107 -2.240163 6.680912
v 1.000000 -2.522890 7.032150
v 0.707107 -2.713657 7.389009
v 0.000000 -2.792675 7.536824
v -0.707107 -2.713657 7.389009
v -1.000000 -2.522890 7.032150
v -0.707107 -2.332124 6.675292
v 0.000000 -2.253105 6.527476
v 0.707107 -2.332124 6.675292
vt 0.610485 0.045765
vt 0.500000 0.000000
vt 0.389515 0.045765
vt 0.343750 0.156250
vt 0.389515 0.266735
vt 0.500000 0.312500
vt 0.610485 0.266735
vt 0.656250 0.156250
vt 0.375000 0.312500
vt 0.406250 0.312500
vt 0.437500 0.312500
vt 0.468750 0.312500
vt 0.500000 0.312500
vt 0.531250 0.312500
vt 0.562500 0.312500
vt 0.593750 0.312500
vt 0.625000 0.312500
vt 0.375000 0.688440
vt 0.406250 0.688440
vt 0.437500 0.688440
vt 0.468750 0.688440
vt 0.500000 0.688440
vt 0.531250 0.688440
vt 0.562500 0.688440
vt 0.593750 0.688440
vt 0.625000 0.688440
vt 0.610485 0.733265
vt 0.500000 0.687500
vt 0.389515 0.733265
vt 0.343750 0.843750
vt 0.389515 0.954235
vt 0.500000 1.000000
vt 0.610485 0.954235
vt 0.656250 0.843750
vt 0.500000 0.150000
vt 0.500000 0.837500
vt 0.625000 0.634734
vt 0.375000 0.634734
vt 0.593750 0.634734
vt 0.562500 0.634734
vt 0.531250 0.634734
vt 0.500000 0.634734
vt 0.468750 0.634734
vt 0.437500 0.634734
vt 0.406250 0.634734
vt 0.625000 0.581028
vt 0.375000 0.581028
vt 0.593750 0.581028
vt 0.562500 0.581028
vt 0.531250 0.581028
vt 0.500000 0.581028
vt 0.468750 0.581028
vt 0.437500 0.581028
vt 0.406250 0.581028
vt 0.625000 0.527323
vt 0.375000 0.527323
vt 0.593750 0.527323
vt 0.562500 0.527323
vt 0.531250 0.527323
vt 0.500000 0.527323
vt 0.468750 0.527323
vt 0.437500 0.527323
vt 0.406250 0.527323
vt 0.625000 0.473617
vt 0.375000 0.473617
vt 0.593750 0.473617
vt 0.562500 0.473617
vt 0.531250 0.473617
vt 0.500000 0.473617
vt 0.468750 0.473617
vt 0.437500 0.473617
vt 0.406250 0.473617
vt 0.625000 0.419911
vt 0.375000 0.419911
vt 0.593750 0.419911
vt 0.562500 0.419911
vt 0.531250 0.419911
vt 0.500000 0.419911
vt 0.468750 0.419911
vt 0.437500 0.419911
vt 0.406250 0.419911
vt 0.625000 0.366206
vt 0.375000 0.366206
vt 0.593750 0.366206
vt 0.562500 0.366206
vt 0.531250 0.366206
vt 0.500000 0.366206
vt 0.468750 0.366206
vt 0.437500 0.366206
vt 0.406250 0.366206
vt 0.593750 0.550339
vt 0.562500 0.550339
vt 0.531250 0.550339
vt 0.500000 0.550339
vt 0.468750 0.550339
vt 0.437500 0.550339
vt 0.406250 0.550339
vt 0.625000 0.550339
vt 0.375000 0.550339
vt 0.593750 0.542667
vt 0.562500 0.542667
vt 0.531250 0.542667
vt 0.500000 0.542667
vt 0.468750 0.542667
vt 0.437500 0.542667
vt 0.406250 0.542667
vt 0.625000 0.542667
vt 0.375000 0.542667
vt 0.593750 0.534995
vt 0.562500 0.534995
vt 0.531250 0.534995
vt 0.500000 0.534995
vt 0.468750 0.534995
vt 0.437500 0.534995
vt 0.406250 0.534995
vt 0.625000 0.534995
vt 0.375000 0.534995
vn 0.172275 -0.580044 -0.796159
vn 0.172275 -0.580044 -0.796159
vn 0.172275 -0.580044 -0.796159
vn 0.172275 -0.580044 -0.796159
vn -0.172275 -0.580044 -0.796159
vn -0.172275 -0.580044 -0.796159
vn -0.172275 -0.580044 -0.796159
vn -0.172275 -0.580044 -0.796159
vn -0.713845 -0.412373 -0.566016
vn -0.713845 -0.412373 -0.566016
vn -0.713845 -0.412373 -0.566016
vn -0.713845 -0.412373 -0.566016
vn -0.713845 0.412373 0.566017
vn -0.713845 0.412373 0.566017
vn -0.713845 0.412373 0.566016
vn -0.713845 0.412373 0.566016
vn -0.172275 0.580044 0.796160
vn -0.172275 0.580044 0.796159
vn -0.172275 0.580044 0.796160
vn -0.172275 0.580044 0.796160
vn 0.172275 0.580044 0.796159
vn 0.172275 0.580044 0.796159
vn 0.172275 0.580044 0.796160
vn 0.172275 0.580044 0.796159
vn 0.713844 0.412373 0.566017
vn 0.713844 0.412373 0.566017
vn 0.713844 0.412373 0.566017
vn 0.713844 0.412373 0.566017
vn 0.713844 -0.412373 -0.566016
vn 0.713844 -0.412373 -0.566016
vn 0.713844 -0.412373 -0.566016
vn 0.713844 -0.412373 -0.566016
vn 0.000000 -0.808244 0.588848
vn 0.000000 -0.808244 0.588848
vn 0.000000 -0.808244 0.588848
vn 0.000000 -0.808244 0.588848
vn 0.000000 -0.808244 0.588848
vn 0.000000 -0.808244 0.588848
vn 0.000000 -0.808244 0.588848
vn 0.000000 -0.808244 0.588848
vn 0.000000 -0.808244 0.588848
vn 0.000001 0.857107 0.515139
vn -0.000000 0.857107 0.515139
vn 0.000000 0.857107 0.515138
vn -0.000001 0.857107 0.515139
vn 0.000000 0.857107 0.515138
vn 0.000001 0.857107 0.515139
vn 0.000000 0.857107 0.515139
vn -0.000001 0.857107 0.515139
vn 0.000000 0.857107 0.515138
vn 0.922489 0.122193 -0.366172
vn 0.923986 0.170456 -0.342338
vn 0.919445 0.084096 -0.384121
vn 0.919445 0.084096 -0.384121
vn 0.924100 -0.131366 0.358862
vn 0.925903 -0.212625 0.312240
vn 0.919073 -0.081652 0.385534
vn 0.919073 -0.081652 0.385535
vn 0.389118 -0.405160 0.827305
vn 0.389084 -0.550818 0.738385
vn 0.370996 -0.188728 0.909255
vn 0.370996 -0.188728 0.909255
vn -0.389084 -0.550818 0.738385
vn -0.389118 -0.405160 0.827305
vn -0.370996 -0.188728 0.909255
vn -0.370996 -0.188728 0.909255
vn -0.925903 -0.212625 0.312240
vn -0.924100 -0.131366 0.358862
vn -0.919074 -0.081652 0.385534
vn -0.919074 -0.081652 0.385534
vn -0.923986 0.170456 -0.342338
vn -0.922490 0.122193 -0.366172
vn -0.919445 0.084096 -0.384121
vn -0.919445 0.084096 -0.384121
vn -0.375051 0.315912 -0.871514
vn -0.374970 0.280655 -0.883533
vn -0.373039 0.203715 -0.905175
vn -0.373039 0.203715 -0.905175
vn 0.374970 0.280655 -0.883533
vn 0.375051 0.315912 -0.871514
vn 0.373039 0.203715 -0.905175
vn 0.373039 0.203715 -0.905175
vn 0.913128 0.200140 -0.355164
vn 0.903010 0.167698 -0.395538
vn 0.915770 -0.301490 0.265460
vn 0.903493 -0.298891 0.307190
vn 0.344926 -0.802664 0.486577
vn 0.319075 -0.844748 0.429641
vn -0.319075 -0.844748 0.429641
vn -0.344926 -0.802664 0.486577
vn -0.903492 -0.298891 0.307190
vn -0.915770 -0.301490 0.265460
vn -0.903010 0.167698 -0.395538
vn -0.913128 0.200140 -0.355164
vn -0.317629 0.182727 -0.930442
vn -0.318443 0.185752 -0.929564
vn 0.318443 0.185752 -0.929564
vn 0.317629 0.182727 -0.930442
vn 0.638222 -0.464161 -0.614188
vn 0.696075 -0.339701 -0.632521
vn 0.801188 0.138906 -0.582068
vn 0.805302 0.137618 -0.576672
vn 0.579243 0.632028 0.514799
vn 0.670962 0.498457 0.548954
vn 0.784828 -0.462995 0.411923
vn 0.803034 -0.445228 0.396116
vn 0.060320 0.978643 0.196516
vn 0.061141 0.978278 0.198075
vn 0.143487 -0.972780 0.181961
vn 0.149995 -0.971831 0.181784
vn -0.061141 0.978278 0.198075
vn -0.060320 0.978643 0.196516
vn -0.149995 -0.971831 0.181784
vn -0.143487 -0.972780 0.181961
vn -0.670962 0.498457 0.548954
vn -0.579243 0.632028 0.514799
vn -0.803034 -0.445228 0.396116
vn -0.784828 -0.462995 0.411923
vn -0.696075 -0.339701 -0.632521
vn -0.638223 -0.464161 -0.614188
vn -0.805302 0.137618 -0.576672
vn -0.801188 0.138906 -0.582067
vn -0.150594 -0.503590 -0.850716
vn -0.146249 -0.530513 -0.834965
vn -0.205175 0.006619 -0.978703
vn -0.205919 0.006618 -0.978547
vn 0.146249 -0.530513 -0.834965
vn 0.150594 -0.503590 -0.850716
vn 0.205919 0.006618 -0.978547
vn 0.205175 0.006619 -0.978703
vn 0.666863 -0.461526 -0.585053
vn 0.625668 -0.500286 -0.598542
vn 0.661591 0.510374 0.549377
vn 0.548410 0.668164 0.502796
vn 0.114390 0.840610 0.529424
vn 0.087260 0.910447 0.404317
vn -0.087260 0.910447 0.404317
vn -0.114391 0.840610 0.529424
vn -0.548410 0.668164 0.502796
vn -0.661591 0.510374 0.549377
vn -0.625668 -0.500286 -0.598542
vn -0.666864 -0.461526 -0.585053
vn -0.145933 -0.567379 -0.810422
vn -0.149069 -0.568914 -0.808774
vn 0.149069 -0.568914 -0.808774
vn 0.145933 -0.567379 -0.810422
vn 0.713844 -0.412373 -0.566017
vn 0.713844 -0.412373 -0.566017
vn 0.713844 0.412373 0.566016
vn 0.713844 0.412373 0.566017
vn 0.172275 0.580044 0.796160
vn 0.172275 0.580044 0.796160
vn -0.172275 0.580044 0.796160
vn -0.172275 0.580044 0.796160
vn -0.713845 0.412373 0.566016
vn -0.713845 0.412373 0.566016
vn -0.713845 -0.412373 -0.566016
vn -0.713845 -0.412373 -0.566016
vn -0.172275 -0.580044 -0.796159
vn -0.172275 -0.580044 -0.796160
vn 0.172275 -0.580044 -0.796160
vn 0.172275 -0.580044 -0.796159
vn 0.866842 -0.257851 0.426730
vn 0.851633 -0.234754 0.468628
vn 0.279312 -0.632438 0.722500
vn 0.271280 -0.527507 0.805074
vn -0.271280 -0.527507 0.805074
vn -0.279313 -0.632438 0.722500
vn -0.851633 -0.234754 0.468627
vn -0.866842 -0.257851 0.426730
vn -0.847955 0.163390 -0.504257
vn -0.851338 0.143069 -0.504733
vn -0.256177 0.197502 -0.946238
vn -0.256144 0.195613 -0.946639
vn 0.256144 0.195613 -0.946639
vn 0.256177 0.197502 -0.946238
vn 0.851337 0.143069 -0.504733
vn 0.847955 0.163391 -0.504258
vn 0.842582 -0.225841 0.488929
vn 0.841069 -0.250460 0.479451
vn 0.260211 -0.462239 0.847718
vn 0.259106 -0.511120 0.819524
vn -0.259106 -0.511120 0.819524
vn -0.260212 -0.462239 0.847717
vn -0.841069 -0.250460 0.479451
vn -0.842582 -0.225841 0.488929
vn -0.838093 0.193463 -0.510071
vn -0.839828 0.197794 -0.505535
vn -0.252399 0.294799 -0.921623
vn -0.252833 0.298889 -0.920185
vn 0.252833 0.298889 -0.920185
vn 0.252399 0.294799 -0.921623
vn 0.839828 0.197794 -0.505535
vn 0.838093 0.193463 -0.510071
s 1
g pCylinder2
usemtl initialShadingGroup
f 1/9/1 2/10/2 66/90/3 59/83/4
s 2
f 2/10/5 3/11/6 65/89/7 66/90/8
s 3
f 3/11/9 4/12/10 64/88/11 65/89/12
s 4
f 4/12/13 5/13/14 63/87/15 64/88/16
s 5
f 5/13/17 6/14/18 62/86/19 63/87/20
s 6
f 6/14/21 7/15/22 61/85/23 62/86/24
s 7
f 7/15/25 8/16/26 60/84/27 61/85/28
s 8
f 8/16/29 1/17/30 59/82/31 60/84/32
s 9
f 2/2/33 1/1/34 17/35/35
f 3/3/36 2/2/33 17/35/35
f 4/4/37 3/3/36 17/35/35
f 5/5/38 4/4/37 17/35/35
f 6/6/39 5/5/38 17/35/35
f 7/7/40 6/6/39 17/35/35
f 8/8/41 7/7/40 17/35/35
f 1/1/34 8/8/41 17/35/35
s 10
f 9/33/42 10/32/43 18/36/44
f 10/32/43 11/31/45 18/36/44
f 11/31/45 12/30/46 18/36/44
f 12/30/46 13/29/47 18/36/44
f 13/29/47 14/28/48 18/36/44
f 14/28/48 15/27/49 18/36/44
f 15/27/49 16/34/50 18/36/44
f 16/34/50 9/33/42 18/36/44
s 8
f 20/39/51 19/37/52 9/26/53 16/25/54
s 7
f 21/40/55 20/39/56 16/25/57 15/24/58
s 6
f 22/41/59 21/40/60 15/24/61 14/23/62
s 5
f 23/42/63 22/41/64 14/23/65 13/22/66
s 4
f 24/43/67 23/42/68 13/22/69 12/21/70
s 3
f 25/44/71 24/43/72 12/21/73 11/20/74
s 2
f 26/45/75 25/44/76 11/20/77 10/19/78
s 1
f 19/38/79 26/45/80 10/19/81 9/18/82
s 8
f 28/48/83 27/46/84 19/37/52 20/39/51
s 7
f 29/49/85 28/48/86 20/39/56 21/40/55
s 6
f 30/50/87 29/49/88 21/40/60 22/41/59
s 5
f 31/51/89 30/50/90 22/41/64 23/42/63
s 4
f 32/52/91 31/51/92 23/42/68 24/43/67
s 3
f 33/53/93 32/52/94 24/43/72 25/44/71
s 2
f 34/54/95 33/53/96 25/44/76 26/45/75
s 1
f 27/47/97 34/54/98 26/45/80 19/38/79
s 8
f 36/57/99 35/55/100 90/116/101 83/109/102
s 7
f 37/58/103 36/57/104 83/109/105 84/110/106
s 6
f 38/59/107 37/58/108 84/110/109 85/111/110
s 5
f 39/60/111 38/59/112 85/111/113 86/112/114
s 4
f 40/61/115 39/60/116 86/112/117 87/113/118
s 3
f 41/62/119 40/61/120 87/113/121 88/114/122
s 2
f 42/63/123 41/62/124 88/114/125 89/115/126
s 1
f 35/56/127 42/63/128 89/115/129 90/117/130
s 8
f 44/66/131 43/64/132 35/55/100 36/57/99
s 7
f 45/67/133 44/66/134 36/57/104 37/58/103
s 6
f 46/68/135 45/67/136 37/58/108 38/59/107
s 5
f 47/69/137 46/68/138 38/59/112 39/60/111
s 4
f 48/70/139 47/69/140 39/60/116 40/61/115
s 3
f 49/71/141 48/70/142 40/61/120 41/62/119
s 2
f 50/72/143 49/71/144 41/62/124 42/63/123
s 1
f 43/65/145 50/72/146 42/63/128 35/56/127
s 8
f 52/75/147 51/73/148 43/64/132 44/66/131
s 7
f 53/76/149 52/75/150 44/66/134 45/67/133
s 6
f 54/77/151 53/76/152 45/67/136 46/68/135
s 5
f 55/78/153 54/77/154 46/68/138 47/69/137
s 4
f 56/79/155 55/78/156 47/69/140 48/70/139
s 3
f 57/80/157 56/79/158 48/70/142 49/71/141
s 2
f 58/81/159 57/80/160 49/71/144 50/72/143
s 1
f 51/74/161 58/81/162 50/72/146 43/65/145
s 8
f 60/84/32 59/82/31 51/73/148 52/75/147
s 7
f 61/85/28 60/84/27 52/75/150 53/76/149
s 6
f 62/86/24 61/85/23 53/76/152 54/77/151
s 5
f 63/87/20 62/86/19 54/77/154 55/78/153
s 4
f 64/88/16 63/87/15 55/78/156 56/79/155
s 3
f 65/89/12 64/88/11 56/79/158 57/80/157
s 2
f 66/90/8 65/89/7 57/80/160 58/81/159
s 1
f 59/83/4 66/90/3 58/81/162 51/74/161
s 7
f 29/49/85 68/92/163 67/91/164 28/48/86
s 6
f 30/50/87 69/93/165 68/92/166 29/49/88
s 5
f 31/51/89 70/94/167 69/93/168 30/50/90
s 4
f 32/52/91 71/95/169 70/94/170 31/51/92
s 3
f 33/53/93 72/96/171 71/95/172 32/52/94
s 2
f 34/54/95 73/97/173 72/96/174 33/53/96
s 1
f 27/47/97 74/99/175 73/97/176 34/54/98
s 8
f 28/48/83 67/91/177 74/98/178 27/46/84
s 7
f 76/101/179 75/100/180 67/91/164 68/92/163
s 6
f 77/102/181 76/101/182 68/92/166 69/93/165
s 5
f 78/103/183 77/102/184 69/93/168 70/94/167
s 4
f 79/104/185 78/103/186 70/94/170 71/95/169
s 3
f 80/105/187 79/104/188 71/95/172 72/96/171
s 2
f 81/106/189 80/105/190 72/96/174 73/97/173
s 1
f 82/108/191 81/106/192 73/97/176 74/99/175
s 8
f 75/100/193 82/107/194 74/98/178 67/91/177
s 7
f 84/110/106 83/109/105 75/100/180 76/101/179
s 6
f 85/111/110 84/110/109 76/101/182 77/102/181
s 5
f 86/112/114 85/111/113 77/102/184 78/103/183
s 4
f 87/113/118 86/112/117 78/103/186 79/104/185
s 3
f 88/114/122 87/113/121 79/104/188 80/105/187
s 2
f 89/115/126 88/114/125 80/105/190 81/106/189
s 1
f 90/117/130 89/115/129 81/106/192 82/108/191
s 8
f 83/109/102 90/116/101 82/107/194 75/100/193
