# This file uses centimeters as units for non-parametric coordinates.

mtllib Hatchet.mtl
g default
v -0.003859 0.436225 0.301235
v -0.002663 0.225584 0.301235
v -0.004539 0.583140 0.301435
v 0.032554 0.451414 0.017944
v -0.003856 0.443183 -0.204963
v -0.003176 0.310406 -0.204963
v -0.004536 0.575958 -0.204963
v -0.040266 0.451095 0.017944
v -0.003176 0.306856 0.017944
v -0.004625 0.591187 0.017944
v -0.002648 0.575711 0.300889
v -0.003657 0.583144 0.301434
v -0.002955 0.436229 0.301235
v -0.002029 0.436233 0.299974
v 0.036457 0.564148 -0.203341
v 0.034718 0.576147 -0.204963
v 0.037076 0.443379 -0.203341
v 0.035398 0.443370 -0.204963
v 0.031847 0.580814 0.017944
v 0.023704 0.589066 0.017861
v -0.001792 0.225588 0.301235
v -0.000846 0.227867 0.299974
v 0.033155 0.321072 0.017944
v 0.031678 0.307008 0.017944
v 0.037747 0.312225 -0.203341
v 0.036078 0.310595 -0.204963
v -0.006336 0.576270 0.300766
v -0.005421 0.583137 0.301435
v -0.004764 0.436221 0.301235
v -0.005690 0.436217 0.299974
v -0.045430 0.568267 -0.203341
v -0.043791 0.575770 -0.204963
v -0.043110 0.442995 -0.204963
v -0.044788 0.442986 -0.203341
v -0.040997 0.584185 0.017944
v -0.032952 0.591035 0.017874
v -0.042430 0.310219 -0.204963
v -0.044116 0.311832 -0.203341
v -0.039657 0.319342 0.017944
v -0.038030 0.306704 0.017944
v -0.003535 0.225580 0.301235
v -0.004514 0.228032 0.299874
v 0.047927 0.318792 -0.119640
v 0.045830 0.310641 -0.120495
v -0.003176 0.310406 -0.120495
v -0.052182 0.310172 -0.120495
v -0.054359 0.317571 -0.119640
v -0.055001 0.442938 -0.119640
v -0.055685 0.576378 -0.119640
v -0.047606 0.583883 -0.120535
v -0.004578 0.584118 -0.120495
v 0.038448 0.584353 -0.120542
v 0.046627 0.572356 -0.119640
v 0.047289 0.443428 -0.119640
v 0.047910 0.322022 -0.038415
v 0.045809 0.310641 -0.038889
v -0.003176 0.310406 -0.038889
v -0.052161 0.310172 -0.038889
v -0.054373 0.320439 -0.038415
v -0.055001 0.442938 -0.038415
v -0.055705 0.577262 -0.038415
v -0.047624 0.584768 -0.038950
v -0.004599 0.585003 -0.038889
v 0.038430 0.585238 -0.038960
v 0.046607 0.575129 -0.038415
v 0.047289 0.443428 -0.038415
v -0.022471 0.577096 0.151557
v -0.018002 0.583891 0.151495
v -0.004503 0.587385 0.151193
v 0.008998 0.584051 0.151473
v 0.013553 0.574840 0.151808
v 0.014153 0.448693 0.151506
v 0.014943 0.294761 0.152604
v 0.013840 0.286507 0.151045
v -0.003015 0.286429 0.151025
v -0.019870 0.286350 0.151004
v -0.021058 0.293982 0.152349
v -0.021849 0.448520 0.151506
v 0.029474 -0.563726 -0.081067
v 0.003128 -0.562964 -0.107847
v -0.023209 -0.563978 -0.081067
v -0.034109 -0.566174 -0.016414
v -0.023187 -0.568265 0.048239
v 0.003159 -0.569027 0.075019
v 0.029496 -0.568013 0.048239
v 0.040396 -0.565817 -0.016414
v 0.021604 0.619589 -0.122490
v -0.004738 0.619464 -0.133041
v -0.031079 0.619337 -0.122490
v -0.041990 0.619285 -0.097017
v -0.031079 0.619337 -0.071545
v -0.004738 0.619464 -0.060994
v 0.021604 0.619589 -0.071545
v 0.032515 0.619642 -0.097017
v 0.003308 -0.598121 -0.001815
v -0.004738 0.619464 -0.097017
v 0.039303 -0.352571 -0.092320
v 0.028341 -0.342664 -0.062646
v 0.001979 -0.338665 -0.050355
v -0.024341 -0.342916 -0.062646
v -0.035202 -0.352928 -0.092320
v -0.024240 -0.362835 -0.121994
v 0.002123 -0.366834 -0.134286
v 0.028444 -0.362583 -0.121994
v 0.016438 -0.590076 0.030388
v 0.021909 -0.593066 -0.001815
v 0.016469 -0.596110 -0.034019
v 0.003304 -0.597423 -0.047358
v -0.009872 -0.596237 -0.034019
v -0.015344 -0.593245 -0.001815
v -0.009904 -0.590202 0.030388
v 0.003260 -0.588890 0.043727
v 0.012621 -0.598076 -0.001815
v 0.011219 -0.599893 -0.021137
v 0.003319 -0.600254 -0.024586
v -0.003270 -0.599661 -0.017917
v -0.007868 -0.598175 -0.001815
v -0.003286 -0.596644 0.014286
v 0.003297 -0.595987 0.020956
v 0.009886 -0.596581 0.014286
v 0.028593 -0.391786 -0.044808
v 0.002230 -0.387661 -0.030184
v -0.024090 -0.392038 -0.044808
v -0.034949 -0.402353 -0.080113
v -0.023985 -0.412564 -0.115419
v 0.002379 -0.416688 -0.130043
v 0.028698 -0.412311 -0.115419
v 0.039557 -0.401996 -0.080113
v 0.029065 -0.483746 0.013549
v 0.002704 -0.480236 0.036745
v -0.023619 -0.483999 0.013549
v -0.034485 -0.492830 -0.042450
v -0.023529 -0.501556 -0.098450
v 0.002831 -0.505066 -0.121646
v 0.029154 -0.501303 -0.098450
v 0.040020 -0.492473 -0.042450
v 0.027680 -0.213457 -0.064401
v 0.001319 -0.209881 -0.052837
v -0.025003 -0.213710 -0.064401
v -0.035869 -0.222699 -0.092320
v -0.024912 -0.231584 -0.120239
v 0.001449 -0.235160 -0.131803
v 0.027771 -0.231332 -0.120239
v 0.038636 -0.222342 -0.092320
vt 0.376453 0.250555
vt 0.375000 0.250000
vt 0.500000 0.189893
vt 0.500000 0.250555
vt 0.375000 0.314755
vt 0.376492 0.315899
vt 0.376527 0.375000
vt 0.375000 0.373323
vt 0.625000 0.187506
vt 0.624302 0.250555
vt 0.376527 0.499167
vt 0.375000 0.505123
vt 0.375000 0.443570
vt 0.376527 0.440408
vt 0.500000 0.499167
vt 0.500000 0.505123
vt 0.623473 0.499167
vt 0.625000 0.505123
vt 0.623833 0.315899
vt 0.624014 0.314703
vt 0.623983 0.373224
vt 0.623409 0.375000
vt 0.623443 0.440408
vt 0.625000 0.443546
vt 0.500000 0.315899
vt 0.500000 0.375000
vt 0.375000 0.625000
vt 0.500000 0.625000
vt 0.625000 0.125000
vt 0.500000 0.125000
vt 0.375000 0.188273
vt 0.375000 0.125000
vt 0.500000 0.440408
vt 0.625000 0.625000
vt 0.875000 0.125000
vt 0.875000 0.244877
vt 0.815847 0.244773
vt 0.815847 0.125000
vt 0.750000 0.244657
vt 0.690636 0.217515
vt 0.690636 0.125000
vt 0.750000 0.125000
vt 0.309364 0.125000
vt 0.309337 0.217998
vt 0.249949 0.244882
vt 0.250000 0.125000
vt 0.184129 0.244879
vt 0.125000 0.244877
vt 0.125000 0.125000
vt 0.184153 0.125000
vt 0.376529 0.934087
vt 0.375000 0.935248
vt 0.375000 0.876682
vt 0.376527 0.875000
vt 0.375000 0.061727
vt 0.376438 0.001438
vt 0.500000 0.000000
vt 0.500000 0.060107
vt 0.623969 0.001031
vt 0.625000 0.062494
vt 0.376527 0.750833
vt 0.375000 0.744877
vt 0.500000 0.744877
vt 0.500000 0.750833
vt 0.376527 0.809592
vt 0.375000 0.806434
vt 0.625000 0.744877
vt 0.623473 0.750833
vt 0.625000 0.806454
vt 0.623412 0.809592
vt 0.750000 0.000594
vt 0.750000 0.005343
vt 0.690636 0.032485
vt 0.691222 0.003731
vt 0.500000 0.809592
vt 0.125000 0.005123
vt 0.184132 0.005123
vt 0.623344 0.875000
vt 0.623773 0.934080
vt 0.500000 0.934101
vt 0.500000 0.875000
vt 0.815847 0.005227
vt 0.875000 0.005123
vt 0.249956 0.005123
vt 0.309341 0.032005
vt 0.623428 0.411286
vt 0.625000 0.413026
vt 0.786529 0.244721
vt 0.786529 0.125000
vt 0.786529 0.005279
vt 0.625000 0.836974
vt 0.623382 0.838714
vt 0.500000 0.838714
vt 0.376527 0.838714
vt 0.375000 0.836943
vt 0.213440 0.005123
vt 0.213471 0.125000
vt 0.213434 0.244881
vt 0.375000 0.413063
vt 0.376527 0.411286
vt 0.500000 0.411286
vt 0.625000 0.375000
vt 0.625000 0.875000
vt 0.375000 0.874956
vt 0.375000 0.375051
vt 0.376531 0.999415
vt 0.375000 1.000000
vt 0.624048 0.250000
vt 0.626234 0.007199
vt 0.624247 0.999401
vt 0.500000 0.999445
vt 0.375000 0.312500
vt 0.406250 0.312500
vt 0.406250 0.328465
vt 0.375000 0.328465
vt 0.437500 0.312500
vt 0.437500 0.328465
vt 0.468750 0.312500
vt 0.468750 0.328465
vt 0.500000 0.312500
vt 0.500000 0.328465
vt 0.531250 0.312500
vt 0.531250 0.328465
vt 0.562500 0.312500
vt 0.562500 0.328465
vt 0.593750 0.312500
vt 0.593750 0.328465
vt 0.625000 0.312500
vt 0.625000 0.328465
vt 0.500000 0.000000
vt 0.610485 0.045765
vt 0.555243 0.097882
vt 0.500000 0.075000
vt 0.389515 0.045765
vt 0.444757 0.097882
vt 0.343750 0.156250
vt 0.421875 0.153125
vt 0.389515 0.266735
vt 0.444757 0.208368
vt 0.500000 0.312500
vt 0.500000 0.231250
vt 0.610485 0.266735
vt 0.555243 0.208368
vt 0.656250 0.156250
vt 0.578125 0.153125
vt 0.610485 0.954235
vt 0.500000 1.000000
vt 0.500000 0.837500
vt 0.389515 0.954235
vt 0.343750 0.843750
vt 0.389515 0.733265
vt 0.500000 0.687500
vt 0.610485 0.733265
vt 0.656250 0.843750
vt 0.562500 0.366591
vt 0.593750 0.366591
vt 0.593750 0.399625
vt 0.562500 0.399625
vt 0.531250 0.366591
vt 0.531250 0.399625
vt 0.500000 0.366591
vt 0.500000 0.399625
vt 0.468750 0.366591
vt 0.468750 0.399625
vt 0.437500 0.366591
vt 0.437500 0.399625
vt 0.406250 0.366591
vt 0.406250 0.399625
vt 0.375000 0.366591
vt 0.375000 0.399625
vt 0.625000 0.366591
vt 0.625000 0.399625
vt 0.527621 0.179184
vt 0.539063 0.151563
vt 0.533146 0.118729
vt 0.500000 0.112500
vt 0.472379 0.123941
vt 0.453125 0.151875
vt 0.472379 0.179184
vt 0.500000 0.190625
vt 0.500000 0.150000
vt 0.531250 0.357893
vt 0.562500 0.357893
vt 0.500000 0.357893
vt 0.468750 0.357893
vt 0.437500 0.357893
vt 0.406250 0.357893
vt 0.375000 0.357893
vt 0.593750 0.357893
vt 0.625000 0.357893
vt 0.562500 0.688440
vt 0.531250 0.688440
vt 0.500000 0.688440
vt 0.468750 0.688440
vt 0.437500 0.688440
vt 0.406250 0.688440
vt 0.375000 0.688440
vt 0.625000 0.688440
vt 0.593750 0.688440
vn 0.683046 0.000312 0.730376
vn 0.683046 0.000312 0.730376
vn 0.761095 0.002988 0.648633
vn 0.761237 0.002993 0.648467
vn 0.879479 0.463230 0.109245
vn 0.879689 0.462842 0.109199
vn 0.778940 0.613867 0.128141
vn 0.783776 0.607910 0.127042
vn 0.800951 0.004484 0.598713
vn 0.800951 0.004484 0.598713
vn 0.922426 0.369472 -0.112341
vn 0.922426 0.369472 -0.112341
vn 0.872176 0.484994 -0.063949
vn 0.869445 0.490167 -0.061664
vn 0.695079 0.003562 -0.718924
vn 0.695079 0.003562 -0.718925
vn 0.695079 0.003561 -0.718925
vn 0.695079 0.003561 -0.718925
vn 0.695079 0.003560 -0.718925
vn 0.695079 0.003560 -0.718925
vn 0.986102 -0.143231 0.084191
vn 0.985904 -0.147957 0.078116
vn 0.980528 -0.127313 0.149521
vn 0.978918 -0.128606 0.158685
vn 0.968220 -0.248717 -0.026258
vn 0.965174 -0.259286 -0.034798
vn 0.936783 -0.335962 -0.097815
vn 0.936783 -0.335962 -0.097815
vn 0.985244 0.004985 0.171082
vn 0.992595 0.004460 0.121392
vn 0.992672 0.005061 0.120738
vn 0.985402 0.005098 0.170168
vn 0.000000 0.000000 -1.000000
vn 0.000000 0.000000 -1.000000
vn 0.000000 0.000000 -1.000000
vn 0.000000 0.000000 -1.000000
vn -0.000007 0.000000 1.000000
vn 0.000000 0.000000 1.000000
vn 0.000099 -0.000560 1.000000
vn 0.000080 -0.000560 1.000000
vn 0.000239 -0.001358 0.999999
vn 0.000205 -0.001359 0.999999
vn 0.993021 0.005623 0.117804
vn 0.986193 0.005211 0.165516
vn 0.998080 0.005121 -0.061725
vn 0.997859 0.005110 -0.065207
vn 0.992625 0.005083 -0.121119
vn 0.992625 0.005086 -0.121118
vn 0.992625 0.005090 -0.121116
vn 0.998308 0.005132 -0.057914
vn -0.000000 0.000000 -1.000000
vn -0.000000 0.000000 -1.000000
vn 0.004792 -0.999989 -0.000001
vn 0.004799 -0.999989 -0.000002
vn 0.004797 -0.999989 -0.000001
vn 0.004792 -0.999989 -0.000001
vn 0.004543 -0.993873 -0.110435
vn 0.004562 -0.977324 -0.211698
vn 0.004567 -0.975874 -0.218288
vn 0.004530 -0.993300 -0.115479
vn 0.014209 0.999153 0.038610
vn 0.154643 0.987306 0.036229
vn 0.080416 0.996575 -0.019254
vn 0.016878 0.999736 -0.015604
vn -0.005335 0.998584 -0.052931
vn -0.005176 0.995335 -0.096337
vn -0.005124 0.995351 -0.096175
vn -0.005299 0.998559 -0.053405
vn -0.835001 0.538613 0.112562
vn -0.838713 0.532952 0.111903
vn -0.711269 0.693429 0.115121
vn -0.705224 0.700184 0.111363
vn -0.713545 -0.005662 0.700586
vn -0.713545 -0.005662 0.700586
vn -0.777929 -0.005123 0.628332
vn -0.777863 -0.005124 0.628413
vn -0.811058 -0.004797 0.584946
vn -0.811058 -0.004797 0.584946
vn -0.695129 -0.003560 -0.718876
vn -0.695129 -0.003560 -0.718876
vn -0.695114 -0.003561 -0.718890
vn -0.695114 -0.003561 -0.718890
vn -0.842367 0.525106 -0.121165
vn -0.842367 0.525106 -0.121165
vn -0.758067 0.649649 -0.057363
vn -0.765984 0.639783 -0.062821
vn -0.695100 -0.003561 -0.718905
vn -0.695100 -0.003561 -0.718905
vn -0.924176 -0.369345 -0.097378
vn -0.924176 -0.369345 -0.097378
vn -0.955597 -0.292512 -0.035638
vn -0.959309 -0.281099 -0.026644
vn -0.975793 -0.152084 0.157158
vn -0.977476 -0.150502 0.147954
vn -0.982616 -0.169750 0.075168
vn -0.982914 -0.164766 0.082050
vn 0.000170 -0.001361 0.999999
vn 0.000062 -0.000561 1.000000
vn -0.998263 -0.005146 -0.058684
vn -0.992625 -0.005085 -0.121122
vn -0.992625 -0.005085 -0.121120
vn -0.998075 -0.005129 -0.061809
vn 0.004554 -0.977350 -0.211580
vn 0.004533 -0.993886 -0.110322
vn -0.005072 0.995367 -0.096013
vn -0.005268 0.998593 -0.052763
vn -0.000014 0.000000 1.000000
vn 0.000000 0.000000 -1.000000
vn -0.000000 0.000000 -1.000000
vn -0.000000 0.000000 -1.000000
vn -0.992625 -0.005085 -0.121119
vn -0.997884 -0.005112 -0.064825
vn -0.986103 -0.004515 0.166072
vn -0.993033 -0.004927 0.117735
vn -0.992674 -0.004958 0.120720
vn -0.985284 -0.004845 0.170856
vn -0.992574 -0.005084 0.121537
vn -0.985136 -0.005165 0.171696
vn 0.004788 -0.999989 -0.000001
vn 0.004785 -0.999989 -0.000001
vn -0.047960 0.998464 -0.027759
vn -0.126715 0.991111 0.040539
vn 0.976796 -0.177105 0.120427
vn 0.976889 -0.177517 0.119059
vn 0.004736 -0.999769 -0.020965
vn 0.004726 -0.999717 -0.023321
vn 0.004730 -0.999771 -0.020871
vn -0.971417 -0.206397 0.117254
vn -0.971350 -0.205978 0.118543
vn -0.994189 -0.004988 0.107534
vn -0.994228 -0.005102 0.107165
vn -0.993753 -0.005229 0.111477
vn -0.674036 0.738206 0.026968
vn -0.672986 0.738965 0.031944
vn -0.005375 0.999070 -0.042773
vn 0.000387 0.999105 -0.042303
vn 0.004855 0.999380 -0.034887
vn 0.780327 0.623538 0.047858
vn 0.783371 0.620224 0.040632
vn 0.993737 0.005192 0.111621
vn 0.994241 0.005081 0.107043
vn 0.994258 0.004984 0.106897
vn -0.927892 0.361579 0.090979
vn -0.927892 0.361579 0.090979
vn -0.235766 0.971461 0.026030
vn -0.005919 0.999622 0.026853
vn 0.225050 0.973994 0.026231
vn 0.944785 0.314743 0.091205
vn 0.944785 0.314743 0.091205
vn 0.994105 0.004065 0.108349
vn 0.994060 0.005072 0.108717
vn 0.994029 0.005745 0.108962
vn 0.981257 -0.191520 0.021349
vn 0.981257 -0.191520 0.021349
vn 0.004718 -0.926834 -0.375442
vn 0.004721 -0.926835 -0.375438
vn 0.004725 -0.926837 -0.375435
vn -0.977488 -0.210180 0.018490
vn -0.977488 -0.210180 0.018490
vn -0.994086 -0.005167 0.108469
vn -0.994123 -0.005111 0.108133
vn -0.994178 -0.005029 0.107635
vn 0.682441 -0.180088 -0.708408
vn 0.682441 -0.180088 -0.708408
vn 0.632175 -0.141303 -0.761832
vn 0.633776 -0.142503 -0.760277
vn -0.680630 -0.187057 -0.708345
vn -0.680630 -0.187057 -0.708345
vn -0.632329 -0.148970 -0.760242
vn -0.630768 -0.147776 -0.761770
vn -0.982731 -0.060918 -0.174725
vn -0.982731 -0.060918 -0.174725
vn -0.978716 -0.065692 -0.194422
vn -0.977840 -0.066668 -0.198453
vn -0.982789 0.062008 0.174015
vn -0.982789 0.062008 0.174015
vn -0.979086 0.078626 0.187639
vn -0.977283 0.086032 0.193690
vn -0.668063 0.286178 0.686873
vn -0.668063 0.286178 0.686873
vn -0.625516 0.365040 0.689547
vn -0.610339 0.390477 0.689213
vn 0.665201 0.292967 0.686788
vn 0.665201 0.292967 0.686788
vn 0.606482 0.396625 0.689107
vn 0.621874 0.371400 0.689445
vn 0.982104 0.072069 0.174004
vn 0.982104 0.072069 0.174004
vn 0.976355 0.096030 0.193672
vn 0.978232 0.088648 0.187625
vn 0.983304 -0.050845 -0.174726
vn 0.983304 -0.050845 -0.174726
vn 0.978471 -0.056646 -0.198459
vn 0.979337 -0.055660 -0.194423
vn 0.004118 -0.875720 -0.482802
vn 0.570099 -0.740458 -0.355962
vn 0.694870 -0.684505 -0.220475
vn 0.003258 -0.885151 -0.465293
vn -0.562861 -0.746033 -0.355841
vn -0.686830 -0.693005 -0.219109
vn -0.819488 -0.571033 -0.048595
vn -0.793743 -0.607626 0.027625
vn -0.684726 -0.655581 0.318376
vn -0.700670 -0.666730 0.254034
vn 0.003876 -0.830161 0.557511
vn 0.004073 -0.845890 0.533342
vn 0.691132 -0.648760 0.318509
vn 0.706439 -0.660863 0.253386
vn 0.825169 -0.562790 -0.048615
vn 0.798803 -0.600918 0.028487
vn -0.004784 0.999989 -0.000006
vn -0.004789 0.999989 0.000000
vn -0.004791 0.999989 -0.000000
vn -0.004798 0.999988 0.000000
vn -0.004797 0.999989 0.000000
vn -0.004798 0.999988 0.000000
vn -0.004789 0.999989 0.000000
vn -0.004784 0.999989 0.000006
vn -0.004789 0.999989 -0.000000
vn 0.941096 0.031711 0.336650
vn 0.942785 0.039729 0.331024
vn 0.927772 0.008982 0.373040
vn 0.926903 0.009181 0.375189
vn 0.434400 0.104253 0.894666
vn 0.436392 0.113741 0.892538
vn 0.391720 0.012209 0.920004
vn 0.390722 0.011995 0.920431
vn -0.437467 0.109216 0.892577
vn -0.435404 0.099844 0.894682
vn -0.390740 0.006507 0.920478
vn -0.391723 0.006769 0.920059
vn -0.943136 0.030064 0.331046
vn -0.941367 0.022073 0.336662
vn -0.926730 -0.003894 0.375707
vn -0.927616 -0.003745 0.373516
vn -0.941937 -0.025335 -0.334833
vn -0.939786 -0.018044 -0.341287
vn -0.926785 -0.007674 -0.375514
vn -0.927632 -0.007136 -0.373428
vn -0.428430 -0.022418 -0.903297
vn -0.424956 -0.015454 -0.905082
vn -0.389957 -0.002679 -0.920829
vn -0.390889 -0.001998 -0.920436
vn 0.425096 -0.011114 -0.905080
vn 0.428620 -0.018009 -0.903305
vn 0.390785 0.003385 -0.920476
vn 0.389874 0.002772 -0.920864
vn 0.939923 -0.008418 -0.341281
vn 0.942146 -0.015680 -0.334835
vn 0.927454 0.005554 -0.373895
vn 0.926593 0.005371 -0.376027
vn 0.332484 -0.924719 0.185337
vn 0.396875 -0.913365 0.090855
vn 0.354696 -0.934676 -0.023910
vn -0.025871 -0.994309 -0.103343
vn -0.329931 -0.943663 -0.025430
vn -0.394356 -0.915184 0.083198
vn -0.324906 -0.924898 0.197484
vn 0.004603 -0.960417 0.278530
vn 0.004773 -0.995628 0.093283
vn 0.536588 0.428984 0.726668
vn 0.532090 0.421386 0.734380
vn -0.536175 0.415951 0.734508
vn -0.540772 0.423544 0.726757
vn -0.967325 0.099193 0.233331
vn -0.968171 0.100184 0.229365
vn -0.968258 -0.069193 -0.240184
vn -0.967818 -0.068986 -0.242011
vn -0.552344 -0.111554 -0.826119
vn -0.546822 -0.110711 -0.829897
vn 0.547901 -0.105111 -0.829914
vn 0.553392 -0.105892 -0.826163
vn 0.968473 -0.059068 -0.242014
vn 0.968914 -0.059269 -0.240195
vn 0.967100 0.110087 0.229345
vn 0.966266 0.109089 0.233303
vn 0.387546 0.011312 0.921781
vn 0.387546 0.011312 0.921781
vn -0.387537 0.005656 0.921837
vn -0.387537 0.005656 0.921837
vn -0.925697 -0.004067 0.378245
vn -0.925697 -0.004067 0.378245
vn -0.925838 -0.008272 -0.377830
vn -0.925838 -0.008272 -0.377830
vn -0.387201 -0.004691 -0.921983
vn -0.387201 -0.004691 -0.921983
vn 0.387119 0.000917 -0.922029
vn 0.387119 0.000917 -0.922029
vn 0.925626 0.005166 -0.378403
vn 0.925626 0.005166 -0.378403
vn 0.925894 0.009412 0.377666
vn 0.925894 0.009412 0.377666
s 1
g Axe
usemtl initialShadingGroup
f 11/1/1 12/2/2 13/3/3 14/4/4
s 2
f 70/5/5 71/6/6 19/7/7 20/8/8
s 1
f 14/4/4 13/3/3 21/9/9 22/10/10
s 2
f 15/11/11 16/12/12 52/13/13 53/14/14
s 4
f 16/12/15 15/11/16 17/15/17 18/16/18
f 18/16/18 17/15/17 25/17/19 26/18/20
s 5
f 73/19/21 74/20/22 24/21/23 23/22/24
f 43/23/25 44/24/26 26/18/27 25/17/28
s 7
f 19/7/29 71/6/30 72/25/31 4/26/32
s 8
f 7/27/33 16/12/34 18/16/35 5/28/36
s 9
f 2/29/37 21/9/38 13/3/39 1/30/40
f 13/3/39 12/31/41 3/32/42 1/30/40
s 7
f 72/25/31 73/19/43 23/22/44 4/26/32
f 54/33/45 43/23/46 25/17/47 17/15/48
f 17/15/48 15/11/49 53/14/50 54/33/45
s 8
f 18/16/35 26/18/51 6/34/52 5/28/36
s 11
f 6/35/53 26/36/54 44/37/55 45/38/56
f 24/39/57 74/40/58 75/41/59 9/42/60
s 13
f 69/43/61 70/44/62 20/45/63 10/46/64
f 52/47/65 16/48/66 7/49/67 51/50/68
s 15
f 67/51/69 68/52/70 36/53/71 35/54/72
s 16
f 28/55/73 27/56/74 30/57/75 29/58/76
f 29/58/76 30/57/75 42/59/77 41/60/78
s 17
f 31/61/79 32/62/80 33/63/81 34/64/82
s 15
f 32/62/83 31/61/84 49/65/85 50/66/86
s 17
f 34/64/82 33/63/81 37/67/87 38/68/88
s 19
f 38/68/89 37/67/90 46/69/91 47/70/92
f 39/71/93 40/72/94 76/73/95 77/74/96
s 9
f 3/32/42 28/55/97 29/58/98 1/30/40
s 21
f 49/65/99 31/61/100 34/64/101 48/75/102
s 11
f 75/41/59 76/73/103 40/72/104 9/42/60
s 13
f 7/49/67 32/76/105 50/77/106 51/50/68
s 9
f 29/58/98 41/60/107 2/29/37 1/30/40
s 8
f 6/34/52 37/67/108 33/63/109 5/28/36
f 33/63/109 32/62/110 7/27/33 5/28/36
s 21
f 34/64/101 38/68/111 47/70/112 48/75/102
f 39/78/113 77/79/114 78/80/115 8/81/116
f 78/80/115 67/51/117 35/54/118 8/81/116
s 11
f 46/82/119 37/83/120 6/35/53 45/38/56
s 13
f 36/84/121 68/85/122 69/43/61 10/46/64
s 5
f 55/86/123 56/87/124 44/24/26 43/23/25
s 11
f 45/38/56 44/37/55 56/88/125 57/89/126
f 58/90/127 46/82/119 45/38/56 57/89/126
s 19
f 47/70/92 46/69/91 58/91/128 59/92/129
s 21
f 48/75/102 47/70/112 59/92/130 60/93/131
f 61/94/132 49/65/99 48/75/102 60/93/131
s 15
f 50/66/86 49/65/85 61/94/133 62/95/134
s 13
f 51/50/68 50/77/106 62/96/135 63/97/136
f 64/98/137 52/47/65 51/50/68 63/97/136
s 2
f 53/14/14 52/13/13 64/99/138 65/100/139
s 7
f 54/33/45 53/14/50 65/100/140 66/101/141
f 66/101/141 55/86/142 43/23/46 54/33/45
s 5
f 23/22/24 24/102/23 56/87/124 55/86/123
s 11
f 57/89/126 56/88/125 24/39/57 9/42/60
f 40/72/104 58/90/127 57/89/126 9/42/60
s 19
f 59/92/129 58/91/128 40/103/94 39/78/93
s 21
f 60/93/131 59/92/130 39/78/113 8/81/116
f 35/54/118 61/94/132 60/93/131 8/81/116
s 15
f 62/95/134 61/94/133 35/54/72 36/104/71
s 13
f 63/97/136 62/96/135 36/84/121 10/46/64
f 20/45/63 64/98/137 63/97/136 10/46/64
s 2
f 65/100/139 64/99/138 20/105/8 19/7/7
s 7
f 66/101/141 65/100/140 19/7/29 4/26/32
f 23/22/44 55/86/142 66/101/141 4/26/32
s 15
f 27/106/143 28/107/144 68/52/70 67/51/69
s 13
f 69/43/61 68/85/122 28/55/145 3/32/146
f 3/32/146 12/31/147 70/44/62 69/43/61
s 2
f 12/2/148 11/1/149 71/6/6 70/5/5
s 7
f 72/25/31 71/6/30 11/1/150 14/4/151
f 14/4/151 22/10/152 73/19/43 72/25/31
s 5
f 22/10/153 21/108/154 74/20/22 73/19/21
s 11
f 75/41/59 74/40/58 21/9/155 2/29/156
f 2/29/156 41/60/157 76/73/103 75/41/59
s 19
f 77/74/96 76/73/95 41/60/158 42/109/159
s 21
f 78/80/115 77/79/114 42/110/160 30/111/161
f 30/111/161 27/106/162 67/51/117 78/80/115
s 23
f 79/112/163 80/113/164 134/114/165 135/115/166
s 24
f 80/113/167 81/116/168 133/117/169 134/114/170
s 25
f 81/116/171 82/118/172 132/119/173 133/117/174
s 26
f 82/118/175 83/120/176 131/121/177 132/119/178
s 27
f 83/120/179 84/122/180 130/123/181 131/121/182
s 28
f 84/122/183 85/124/184 129/125/185 130/123/186
s 29
f 85/124/187 86/126/188 136/127/189 129/125/190
s 30
f 86/126/191 79/128/192 135/129/193 136/127/194
s 31
f 80/130/195 79/131/196 107/132/197 108/133/198
f 81/134/199 80/130/195 108/133/198 109/135/200
f 82/136/201 81/134/199 109/135/200 110/137/202
f 83/138/203 82/136/201 110/137/202 111/139/204
f 84/140/205 83/138/203 111/139/204 112/141/206
f 85/142/207 84/140/205 112/141/206 105/143/208
f 86/144/209 85/142/207 105/143/208 106/145/210
f 79/131/196 86/144/209 106/145/210 107/132/197
s 32
f 87/146/211 88/147/212 96/148/213
f 88/147/212 89/149/214 96/148/213
f 89/149/214 90/150/215 96/148/213
f 90/150/215 91/151/216 96/148/213
f 91/151/216 92/152/217 96/148/213
f 92/152/217 93/153/218 96/148/213
f 93/153/218 94/154/219 96/148/213
f 94/154/219 87/146/211 96/148/213
s 29
f 98/155/220 97/156/221 144/157/222 137/158/223
s 28
f 99/159/224 98/155/225 137/158/226 138/160/227
s 27
f 100/161/228 99/159/229 138/160/230 139/162/231
s 26
f 101/163/232 100/161/233 139/162/234 140/164/235
s 25
f 102/165/236 101/163/237 140/164/238 141/166/239
s 24
f 103/167/240 102/165/241 141/166/242 142/168/243
s 23
f 104/169/244 103/167/245 142/168/246 143/170/247
s 30
f 97/156/248 104/171/249 143/172/250 144/157/251
s 31
f 106/145/210 105/143/208 120/173/252 113/174/253
f 107/132/197 106/145/210 113/174/253 114/175/254
f 108/133/198 107/132/197 114/175/254 115/176/255
f 109/135/200 108/133/198 115/176/255 116/177/256
f 110/137/202 109/135/200 116/177/256 117/178/257
f 111/139/204 110/137/202 117/178/257 118/179/258
f 112/141/206 111/139/204 118/179/258 119/180/259
f 105/143/208 112/141/206 119/180/259 120/173/252
f 114/175/254 113/174/253 95/181/260
f 115/176/255 114/175/254 95/181/260
f 116/177/256 115/176/255 95/181/260
f 117/178/257 116/177/256 95/181/260
f 118/179/258 117/178/257 95/181/260
f 119/180/259 118/179/258 95/181/260
f 120/173/252 119/180/259 95/181/260
f 113/174/253 120/173/252 95/181/260
s 28
f 122/182/261 121/183/262 98/155/225 99/159/224
s 27
f 123/184/263 122/182/264 99/159/229 100/161/228
s 26
f 124/185/265 123/184/266 100/161/233 101/163/232
s 25
f 125/186/267 124/185/268 101/163/237 102/165/236
s 24
f 126/187/269 125/186/270 102/165/241 103/167/240
s 23
f 127/188/271 126/187/272 103/167/245 104/169/244
s 30
f 128/189/273 127/190/274 104/171/249 97/156/248
s 29
f 121/183/275 128/189/276 97/156/221 98/155/220
s 28
f 130/123/186 129/125/185 121/183/262 122/182/261
s 27
f 131/121/182 130/123/181 122/182/264 123/184/263
s 26
f 132/119/178 131/121/177 123/184/266 124/185/265
s 25
f 133/117/174 132/119/173 124/185/268 125/186/267
s 24
f 134/114/170 133/117/169 125/186/270 126/187/269
s 23
f 135/115/166 134/114/165 126/187/272 127/188/271
s 30
f 136/127/194 135/129/193 127/190/274 128/189/273
s 29
f 129/125/190 136/127/189 128/189/276 121/183/275
s 28
f 138/160/227 137/158/226 93/191/277 92/192/278
s 27
f 139/162/231 138/160/230 92/192/279 91/193/280
s 26
f 140/164/235 139/162/234 91/193/281 90/194/282
s 25
f 141/166/239 140/164/238 90/194/283 89/195/284
s 24
f 142/168/243 141/166/242 89/195/285 88/196/286
s 23
f 143/170/247 142/168/246 88/196/287 87/197/288
s 30
f 144/157/251 143/172/250 87/198/289 94/199/290
s 29
f 137/158/223 144/157/222 94/199/291 93/191/292
